
All legitimate Bearmeister torrents located here 
http://thepiratebay.org/user/bearmeister/

  Duration: 00:57:31.3, bitrate: 1213 kb/s
  Stream #0.0: Video: mpeg4, 624x464, 29.97 fps
  Stream #0.1: Audio: mp3, 24000 Hz, stereo, 61 kb/s

In this release of Thomas and Friends Milkshake Muddle DVD, get on board for more adventures with Thomas the Tank Engine AND meet the newest engines, Mighty Mac  and Neville! Ride along as they encounter new trucks, an old mine and an ice cream factory and see how they muddle their way through 6 thrilling episodes! Join Mighty Mac, a very unusual engine with two faces, and Neville, an enthusiastic steamie, who is everyone's friend on The Island of Sodor.